<svg xmlns="http://www.w3.org/2000/svg" version="1.1" xmlns:xlink="http://www.w3.org/1999/xlink" xmlns:svgjs="http://svgjs.dev/svgjs" width="1000" height="623" viewBox="0 0 1000 623"><g transform="matrix(1,0,0,1,-0.6060606060606233,0.2522267206477409)"><svg viewBox="0 0 396 247" data-background-color="#d9bca9" preserveAspectRatio="xMidYMid meet" height="623" width="1000" xmlns="http://www.w3.org/2000/svg" xmlns:xlink="http://www.w3.org/1999/xlink"><g id="tight-bounds" transform="matrix(1,0,0,1,0.2400000000000091,-0.09999999999999432)"><svg viewBox="0 0 395.52 247.2" height="247.2" width="395.52"><g><svg></svg></g><g><svg viewBox="0 0 395.52 247.2" height="247.2" width="395.52"><g transform="matrix(1,0,0,1,75.54432,103.49094970576137)"><svg viewBox="0 0 244.43135999999998 40.218100588477256" height="40.218100588477256" width="244.43135999999998"><g><svg viewBox="0 0 244.43135999999998 40.218100588477256" height="40.218100588477256" width="244.43135999999998"><g><svg viewBox="0 0 295.4821602754759 48.617866562046906" height="40.218100588477256" width="244.43135999999998"><g transform="matrix(1,0,0,1,0,6.719256521961622)"><svg viewBox="0 0 244.43136 35.17935351812366" height="35.17935351812366" width="244.43136"><g id="textblocktransform"><svg viewBox="0 0 244.43136 35.17935351812366" height="35.17935351812366" width="244.43136" id="textblock"><g><svg viewBox="0 0 244.43136 35.17935351812366" height="35.17935351812366" width="244.43136"><g transform="matrix(1,0,0,1,0,0)"><svg width="244.43136" viewBox="2 -40 281.3699951171875 40.5" height="35.17935351812366" data-palette-color="#c56e33"><path d="M35.55-35.75Q34.55-36.05 33.8-36.05L33.8-36.05Q32.85-36.05 32.33-35.52 31.8-35 31.8-34L31.8-34 31.8-3Q31.8-2 32.33-1.48 32.85-0.95 33.8-0.95L33.8-0.95Q34.6-0.95 35.55-1.25L35.55-1.25 35.55 0 24.3 0 24.3-1.25Q25.3-0.95 26.05-0.95L26.05-0.95Q27-0.95 27.53-1.48 28.05-2 28.05-3L28.05-3 28.05-20.15 9.5-20.15 9.5-3Q9.5-2 10.03-1.48 10.55-0.95 11.55-0.95L11.55-0.95Q12.3-0.95 13.25-1.25L13.25-1.25 13.25 0 2 0 2-1.25Q2.95-0.95 3.75-0.95L3.75-0.95Q4.7-0.95 5.23-1.48 5.75-2 5.75-3L5.75-3 5.75-34Q5.75-35 5.23-35.52 4.7-36.05 3.75-36.05L3.75-36.05Q2.95-36.05 2-35.75L2-35.75 2-37 13.25-37 13.25-35.75Q12.3-36.05 11.5-36.05L11.5-36.05Q10.55-36.05 10.03-35.52 9.5-35 9.5-34L9.5-34 9.5-21.15 28.05-21.15 28.05-34Q28.05-35 27.53-35.52 27-36.05 26.05-36.05L26.05-36.05Q25.3-36.05 24.3-35.75L24.3-35.75 24.3-37 35.55-37 35.55-35.75ZM48 0.5Q43.25 0.5 40.9-2.68 38.55-5.85 38.55-11.95L38.55-11.95Q38.55-15.15 39.55-17.98 40.55-20.8 42.67-22.58 44.8-24.35 47.9-24.35L47.9-24.35Q52.95-24.35 55.1-21.28 57.25-18.2 57.25-13.9L57.25-13.9Q57.25-13.15 57.15-11.95L57.15-11.95 57.1-11.5 42.05-11.5Q42.25-0.3 48.3-0.3L48.3-0.3Q51-0.3 52.3-1.95 53.6-3.6 53.6-5.7L53.6-5.7Q53.6-6.55 53.17-6.95 52.75-7.35 52.1-7.35L52.1-7.35Q51.6-7.35 51.22-7.08 50.85-6.8 50.85-6.4L50.85-6.4 50.4-6.4 50.4-7.75 56.75-7.75Q56.9-5.85 55.82-3.95 54.75-2.05 52.7-0.8 50.65 0.45 48 0.5L48 0.5ZM52.45-12.25Q53.35-12.25 53.52-12.43 53.7-12.6 53.75-13.3L53.75-13.3Q53.8-13.85 53.8-14.95L53.8-14.95Q53.8-18.75 52.4-21.25 51-23.75 47.7-23.75L47.7-23.75Q44.5-23.75 43.3-20.6 42.1-17.45 42.05-12.25L42.05-12.25 52.45-12.25ZM73.4-20.15Q73.4-19.55 73.2-18.8 73-18.05 72.95-17.9L72.95-17.9Q72.55-16.6 72.55-16.15L72.55-16.15Q72.55-15.15 74-15.15L74-15.15 74-14.65Q71.95-14.65 71.07-15.7 70.2-16.75 70.2-18.4L70.2-18.4Q70.2-19.2 70.35-19.95L70.35-19.95Q70.65-21.4 70.65-22.2L70.65-22.2Q70.65-23.05 70.32-23.38 70-23.7 69.3-23.7L69.3-23.7Q67.85-23.7 67.05-20.63 66.25-17.55 66.25-13.45L66.25-13.45 66.25-3Q66.25-1.7 66.47-1.1 66.7-0.5 67.5-0.5L67.5-0.5Q67.9-0.5 68.75-0.75L68.75-0.75 68.75 0 60.5 0 60.5-0.75Q61.35-0.5 61.75-0.5L61.75-0.5Q62.65-0.5 62.9-1.13 63.15-1.75 63.15-3L63.15-3 63.15-20.8Q62.4-20.55 61.55-20.55L61.55-20.55Q61.2-20.55 60.5-20.65L60.5-20.65 60.5-22 60.95-22Q60.95-21.65 61.32-21.4 61.7-21.15 62.2-21.15L62.2-21.15Q62.95-21.15 63.5-21.7 64.05-22.25 64.8-23.35L64.8-23.35 65.3-23.35 65.35-19.3 65.85-19.3Q66.45-21.9 67.52-23.13 68.6-24.35 69.8-24.35L69.8-24.35Q71.55-24.35 72.47-23.05 73.4-21.75 73.4-20.15L73.4-20.15ZM110.29-3.05Q110.29-1.8 110.54-1.18 110.79-0.55 111.69-0.55L111.69-0.55Q112.09-0.55 112.94-0.8L112.94-0.8 112.94-0.05 104.44-0.05 104.44-0.8Q105.29-0.55 105.69-0.55L105.69-0.55Q106.49-0.55 106.72-1.15 106.94-1.75 106.94-3.05L106.94-3.05 106.94-17.05Q106.94-20.45 105.44-22.13 103.94-23.8 101.59-23.8L101.59-23.8Q100.04-23.8 98.77-22.7 97.49-21.6 96.77-20 96.04-18.4 96.04-17.05L96.04-17.05 96.09-3Q96.09-1.75 96.34-1.13 96.59-0.5 97.49-0.5L97.49-0.5Q97.89-0.5 98.74-0.75L98.74-0.75 98.74 0 90.54 0 90.54-0.75Q91.39-0.5 91.79-0.5L91.79-0.5Q92.59-0.5 92.82-1.1 93.04-1.7 93.04-3L93.04-3 93.04-17Q93.04-20.4 91.64-22.08 90.24-23.75 87.89-23.75L87.89-23.75Q85.59-23.75 84.27-22 82.94-20.25 82.39-17.55L82.39-17.55 82.39-3Q82.39-1.7 82.62-1.1 82.84-0.5 83.64-0.5L83.64-0.5Q84.04-0.5 84.89-0.75L84.89-0.75 84.89 0 76.39 0 76.39-0.75Q77.24-0.5 77.64-0.5L77.64-0.5Q78.49-0.5 78.77-1.15 79.04-1.8 79.04-3.05L79.04-3.05 79.04-20.95Q78.09-20.55 76.99-20.55L76.99-20.55Q76.69-20.55 75.99-20.65L75.99-20.65 75.99-22 76.44-22Q76.44-21.65 76.82-21.4 77.19-21.15 77.69-21.15L77.69-21.15Q78.39-21.15 78.94-21.7 79.49-22.25 80.29-23.4L80.29-23.4 81.19-23.4 81.19-19.3 82.04-19.3Q84.04-24.4 88.34-24.4L88.34-24.4Q90.34-24.4 92.14-23.38 93.94-22.35 94.89-20.5L94.89-20.5Q95.24-19.8 95.24-19.3L95.24-19.3 95.74-19.3Q96.04-20.35 96.92-21.55 97.79-22.75 99.12-23.6 100.44-24.45 102.04-24.45L102.04-24.45Q103.94-24.45 105.87-23.48 107.79-22.5 109.04-20.68 110.29-18.85 110.29-16.45L110.29-16.45 110.29-3.05ZM122.54 0.5Q119.74 0.5 117.84-1.23 115.94-2.95 115.94-6.15L115.94-6.15Q115.94-8.45 117.49-10.08 119.04-11.7 120.89-12.3L120.89-12.3Q121.84-12.6 123.12-12.88 124.39-13.15 124.84-13.25L124.84-13.25Q127.34-13.75 128.59-14.18 129.84-14.6 130.09-15.35L130.09-15.35Q130.09-18.95 128.72-21.35 127.34-23.75 124.14-23.75L124.14-23.75Q122.14-23.75 121.17-22.33 120.19-20.9 120.19-18.5L120.19-18.5Q120.19-17.85 120.44-17.57 120.69-17.3 121.59-17.3L121.59-17.3Q122.14-17.3 122.54-17.55 122.94-17.8 122.94-18.15L122.94-18.15 123.39-18.15 123.39-16.8 116.84-16.8Q116.84-18.6 117.89-20.38 118.94-22.15 120.79-23.28 122.64-24.4 124.89-24.4L124.89-24.4Q127.89-24.4 129.72-23.03 131.54-21.65 132.31-19.73 133.09-17.8 133.09-15.9L133.09-15.9 133.09-5.05Q133.09-1.3 134.69-1.3L134.69-1.3Q135.19-1.3 135.62-1.98 136.04-2.65 136.04-3.35L136.04-3.35 136.54-3.35Q136.54-1.5 135.42-0.5 134.29 0.5 132.84 0.5L132.84 0.5Q131.14 0.5 130.62-1 130.09-2.5 130.09-5.2L130.09-5.2 130.09-7.5Q130.09-6.8 129.42-4.85 128.74-2.9 127.04-1.2 125.34 0.5 122.54 0.5L122.54 0.5ZM123.69-0.9Q125.39-0.9 126.84-2.25 128.29-3.6 129.14-5.45 129.99-7.3 129.99-8.55L129.99-8.55 129.99-14.25Q129.99-14.1 129.49-13.95 128.99-13.8 128.24-13.65L128.24-13.65Q124.99-12.8 123.49-12.25L123.49-12.25Q121.14-11.4 120.04-9.88 118.94-8.35 118.94-6.45L118.94-6.45Q118.94-4.25 120.17-2.58 121.39-0.9 123.69-0.9L123.69-0.9ZM159.44-3Q159.44-1.75 159.69-1.13 159.94-0.5 160.84-0.5L160.84-0.5Q161.24-0.5 162.09-0.75L162.09-0.75 162.09 0 153.59 0 153.59-0.75Q154.44-0.5 154.84-0.5L154.84-0.5Q155.64-0.5 155.86-1.1 156.09-1.7 156.09-3L156.09-3 156.09-16.4Q156.09-19.85 154.66-21.8 153.24-23.75 150.94-23.75L150.94-23.75Q148.74-23.75 147.41-22.03 146.09-20.3 145.56-17.95 145.04-15.6 145.04-13.45L145.04-13.45 145.04-3Q145.04-1.7 145.26-1.1 145.49-0.5 146.29-0.5L146.29-0.5Q146.69-0.5 147.54-0.75L147.54-0.75 147.54 0 139.04 0 139.04-0.75Q139.89-0.5 140.29-0.5L140.29-0.5Q141.19-0.5 141.44-1.13 141.69-1.75 141.69-3L141.69-3 141.69-20.75Q140.94-20.5 140.09-20.5L140.09-20.5Q139.74-20.5 139.04-20.6L139.04-20.6 139.04-21.95 139.49-21.95Q139.49-21.6 139.86-21.35 140.24-21.1 140.74-21.1L140.74-21.1Q141.44-21.1 141.99-21.65 142.54-22.2 143.34-23.35L143.34-23.35 144.24-23.35 144.29-19.3 144.99-19.3Q145.89-21.55 147.46-22.98 149.04-24.4 151.39-24.4L151.39-24.4Q153.29-24.4 155.16-23.43 157.04-22.45 158.24-20.63 159.44-18.8 159.44-16.4L159.44-16.4 159.44-3ZM203.03-2Q203.38-0.7 204.83-0.7L204.83-0.7Q205.78-0.7 207.33-1.25L207.33-1.25 207.33 0 195.28 0 195.28-1.25Q196.73-0.75 197.78-0.75L197.78-0.75Q198.98-0.75 198.98-1.6L198.98-1.6Q198.98-1.85 198.93-2L198.93-2 194.43-16.25 183.83-16.25Q182.03-10.25 180.38-4.25L180.38-4.25 180.03-3Q179.93-2.7 179.93-2.25L179.93-2.25Q179.93-0.8 181.73-0.8L181.73-0.8Q182.73-0.8 184.03-1.25L184.03-1.25 184.03 0 173.58 0 173.58-1.25Q174.78-0.8 175.88-0.8L175.88-0.8Q177.38-0.8 178.03-2L178.03-2Q178.38-2.7 178.63-3.45L178.63-3.45 189.23-38 192.13-38 203.03-2ZM188.93-33.55L184.08-17.15 194.13-17.15 188.93-33.55ZM213.03 0.5Q211.18 0.5 210.66-0.93 210.13-2.35 210.13-5.1L210.13-5.1 210.13-7.5 210.13-22.65 206.83-22.65 206.83-23.4 210.13-23.4 210.13-28.75Q211.18-28.75 211.71-29.45 212.23-30.15 212.23-30.9L212.23-30.9 213.28-30.9 213.23-23.4 217.33-23.4 217.33-22.65 213.23-22.65 213.18-5.05Q213.18-3.05 213.56-2.18 213.93-1.3 214.78-1.3L214.78-1.3Q215.78-1.3 216.43-2.2 217.08-3.1 217.41-4.23 217.73-5.35 217.73-6L217.73-6 218.23-6Q218.23-4.6 217.58-3.08 216.93-1.55 215.76-0.53 214.58 0.5 213.03 0.5L213.03 0.5ZM240.78-3Q240.78-1.75 241.03-1.13 241.28-0.5 242.18-0.5L242.18-0.5Q242.58-0.5 243.43-0.75L243.43-0.75 243.43 0 234.93 0 234.93-0.75Q235.78-0.5 236.18-0.5L236.18-0.5Q236.98-0.5 237.2-1.1 237.43-1.7 237.43-3L237.43-3 237.43-17Q237.43-20.4 236.03-22.08 234.63-23.75 232.28-23.75L232.28-23.75Q230.08-23.75 228.75-22.03 227.43-20.3 226.9-17.95 226.38-15.6 226.38-13.45L226.38-13.45 226.38-3Q226.38-1.7 226.6-1.1 226.83-0.5 227.63-0.5L227.63-0.5Q228.03-0.5 228.88-0.75L228.88-0.75 228.88 0 220.23 0 220.23-0.75Q221.08-0.5 221.48-0.5L221.48-0.5Q222.38-0.5 222.63-1.13 222.88-1.75 222.88-3L222.88-3 222.88-37.4Q222.13-37.15 221.28-37.15L221.28-37.15Q220.93-37.15 220.23-37.25L220.23-37.25 220.23-38.6 220.68-38.6Q220.68-38.25 221.05-38 221.43-37.75 221.93-37.75L221.93-37.75Q222.63-37.75 223.18-38.3 223.73-38.85 224.53-40L224.53-40 225.58-40 225.63-19.3 226.33-19.3Q227.23-21.55 228.8-22.98 230.38-24.4 232.73-24.4L232.73-24.4Q234.63-24.4 236.5-23.43 238.38-22.45 239.58-20.63 240.78-18.8 240.78-16.4L240.78-16.4 240.78-3ZM256.38 0.5Q251.08 0.5 248.75-2.88 246.43-6.25 246.43-11.95L246.43-11.95Q246.43-17.2 248.78-20.78 251.13-24.35 256.38-24.35L256.38-24.35Q261.63-24.35 264-20.78 266.38-17.2 266.38-11.95L266.38-11.95Q266.38-6.25 264.03-2.88 261.68 0.5 256.38 0.5L256.38 0.5ZM256.38-0.1Q259.78-0.1 261.33-3.38 262.88-6.65 262.88-11.95L262.88-11.95Q262.88-16.9 261.28-20.33 259.68-23.75 256.38-23.75L256.38-23.75Q253.08-23.75 251.5-20.33 249.93-16.9 249.93-11.95L249.93-11.95Q249.93-6.65 251.48-3.38 253.03-0.1 256.38-0.1L256.38-0.1ZM282.77-20.15Q282.77-19.55 282.57-18.8 282.37-18.05 282.32-17.9L282.32-17.9Q281.92-16.6 281.92-16.15L281.92-16.15Q281.92-15.15 283.37-15.15L283.37-15.15 283.37-14.65Q281.32-14.65 280.45-15.7 279.57-16.75 279.57-18.4L279.57-18.4Q279.57-19.2 279.72-19.95L279.72-19.95Q280.02-21.4 280.02-22.2L280.02-22.2Q280.02-23.05 279.7-23.38 279.37-23.7 278.67-23.7L278.67-23.7Q277.22-23.7 276.42-20.63 275.62-17.55 275.62-13.45L275.62-13.45 275.62-3Q275.62-1.7 275.85-1.1 276.07-0.5 276.87-0.5L276.87-0.5Q277.27-0.5 278.12-0.75L278.12-0.75 278.12 0 269.87 0 269.87-0.75Q270.72-0.5 271.12-0.5L271.12-0.5Q272.02-0.5 272.27-1.13 272.52-1.75 272.52-3L272.52-3 272.52-20.8Q271.77-20.55 270.92-20.55L270.92-20.55Q270.57-20.55 269.87-20.65L269.87-20.65 269.87-22 270.32-22Q270.32-21.65 270.7-21.4 271.07-21.15 271.57-21.15L271.57-21.15Q272.32-21.15 272.87-21.7 273.42-22.25 274.17-23.35L274.17-23.35 274.67-23.35 274.72-19.3 275.22-19.3Q275.82-21.9 276.9-23.13 277.97-24.35 279.17-24.35L279.17-24.35Q280.92-24.35 281.85-23.05 282.77-21.75 282.77-20.15L282.77-20.15Z" opacity="1" transform="matrix(1,0,0,1,0,0)" fill="#c56e33" class="wordmark-text-0" data-fill-palette-color="primary" id="text-0"></path></svg></g></svg></g></svg></g></svg></g><g transform="matrix(1,0,0,1,252.73636106114458,0)"><svg viewBox="0 0 42.74579921433132 48.617866562046906" height="48.617866562046906" width="42.74579921433132"><g><svg version="1.1" xmlns="http://www.w3.org/2000/svg" xmlns:xlink="http://www.w3.org/1999/xlink" x="0" y="0" viewBox="6.039000511169434 0 87.9219970703125 100" enable-background="new 6.039 0 87.922 100" xml:space="preserve" width="42.74579921433132" height="48.617866562046906" class="icon-icon-0" data-fill-palette-color="accent" id="icon-0"><path d="M42.023 97.029c0 1.643 3.571 2.971 7.977 2.971 4.406 0 7.977-1.328 7.977-2.971V63.468H42.023V97.029z" fill="#551e19" data-fill-palette-color="accent"></path><path d="M84.045 5.583H65.213V2.412C65.213 0.773 58.403 0 50.001 0c-8.402 0-15.214 0.772-15.214 2.411v3.173H15.956l-9.917 6.678v41.743l9.917 6.68h68.089l9.916-6.68V12.263L84.045 5.583zM75.705 28.169l-9.295 8.382 5.476 2.516L54.744 50.001l7.994-8.942-5.476-2.516 9.295-8.382-5.474-2.513 17.14-10.935-7.993 8.94L75.705 28.169z" fill="#551e19" data-fill-palette-color="accent"></path></svg></g></svg></g></svg></g></svg></g></svg></g><path d="M210.69 97.491L210.69 33.195 391.499 33.195 391.499 214.005 210.69 214.005 210.69 149.709 213.314 149.709 213.314 211.38 388.875 211.38 388.875 35.82 213.314 35.82 213.314 97.491Z" fill="#c56e33" stroke="transparent" data-fill-palette-color="primary"></path></svg></g><defs></defs></svg><rect width="395.52" height="247.2" fill="none" stroke="none" visibility="hidden"></rect></g></svg></g></svg>