<svg xmlns="http://www.w3.org/2000/svg" version="1.1" xmlns:xlink="http://www.w3.org/1999/xlink" xmlns:svgjs="http://svgjs.dev/svgjs" width="1000" height="999" viewBox="0 0 1000 999"><g transform="matrix(1,0,0,1,-0.215743440233382,-0.21552769679306039)"><svg viewBox="0 0 343 343" data-background-color="#e6b17e" preserveAspectRatio="xMidYMid meet" height="999" width="1000" xmlns="http://www.w3.org/2000/svg" xmlns:xlink="http://www.w3.org/1999/xlink"><g id="tight-bounds" transform="matrix(1,0,0,1,0.0740000000000407,0.07400000000001228)"><svg viewBox="0 0 342.85155851775386 342.85155851775386" height="342.85155851775386" width="342.85155851775386"><g><svg></svg></g><g><svg viewBox="0 0 342.85155851775386 342.85155851775386" height="342.85155851775386" width="342.85155851775386"><g><path d="M0 171.426c0-94.676 76.75-171.426 171.426-171.426 94.676 0 171.426 76.75 171.426 171.426 0 94.676-76.75 171.426-171.426 171.426-94.676 0-171.426-76.75-171.426-171.426zM171.426 340.345c93.292 0 168.919-75.628 168.919-168.919 0-93.292-75.628-168.919-168.919-168.92-93.292 0-168.919 75.628-168.92 168.92 0 93.292 75.628 168.919 168.92 168.919z" data-fill-palette-color="tertiary" fill="#000000" stroke="transparent"></path><ellipse rx="164.56874808852186" ry="164.56874808852186" cx="171.42577925887693" cy="171.42577925887693" fill="#000000" stroke="transparent" stroke-width="0" fill-opacity="1" data-fill-palette-color="tertiary"></ellipse></g><g transform="matrix(1,0,0,1,64.84655864529837,106.77400819800081)"><svg viewBox="0 0 213.1584412271571 129.30354212175223" height="129.30354212175223" width="213.1584412271571"><g><svg viewBox="0 0 213.1584412271571 129.30354212175223" height="129.30354212175223" width="213.1584412271571"><g><svg viewBox="0 0 213.1584412271571 129.30354212175223" height="129.30354212175223" width="213.1584412271571"><g transform="matrix(1,0,0,1,0,77.77439318005824)"><svg viewBox="0 0 213.1584412271571 51.529148941693975" height="51.529148941693975" width="213.1584412271571"><g id="textblocktransform"><svg viewBox="0 0 213.1584412271571 51.529148941693975" height="51.529148941693975" width="213.1584412271571" id="textblock"><g><svg viewBox="0 0 213.1584412271571 27.792360691629675" height="27.792360691629675" width="213.1584412271571"><g transform="matrix(1,0,0,1,0,0)"><svg width="213.1584412271571" viewBox="3.6500000953674316 -38.099998474121094 297.1700134277344 38.75" height="27.792360691629675" data-palette-color="#e6b17e"><path d="M26.7 0L26.7-17.2 9-17.2 9 0 4.35 0 4.35-33.1Q4.35-33.15 4.17-33.9 4-34.65 3.85-35.45 3.7-36.25 3.65-36.4L3.65-36.4 9-36.4 9-20.6 26.7-20.6 26.7-36.4 31.35-36.4 31.35 0 26.7 0ZM49.2-25.45L49.2-25.45Q52.2-25.45 54.25-24.23 56.3-23 57.32-20.83 58.35-18.65 58.35-15.75L58.35-15.75Q58.35-15.05 58.27-14.33 58.2-13.6 58.1-12.8L58.1-12.8 42.3-12.8Q42.3-8.05 44.4-5.45 46.5-2.85 50-2.85L50-2.85Q51.45-2.85 53.02-3.3 54.6-3.75 56.3-4.65L56.3-4.65 57.85-2.15Q56.1-0.75 53.9-0.05 51.7 0.65 49.45 0.65L49.45 0.65Q45.55 0.65 42.97-1.2 40.4-3.05 39.15-6 37.9-8.95 37.9-12.15L37.9-12.15Q37.9-14.65 38.6-17 39.3-19.35 40.72-21.28 42.15-23.2 44.25-24.33 46.35-25.45 49.2-25.45ZM48.8-22.3L48.8-22.3Q47.1-22.3 45.8-21.35 44.5-20.4 43.7-18.93 42.9-17.45 42.6-15.9L42.6-15.9 54-15.9Q54.05-18 53.42-19.43 52.8-20.85 51.62-21.58 50.45-22.3 48.8-22.3ZM62.85-24.75L67.35-25.3Q68.25-23.1 68.5-20.65L68.5-20.65Q69.8-22.7 72-24 74.2-25.3 76.65-25.3L76.65-25.3 75.65-20.9Q73.25-20.9 71.57-19.65 69.9-18.4 68.6-16.5L68.6-16.5 68.6 0 64.45 0 64.45-18Q64.45-19 64.3-20.25 64.15-21.5 63.8-22.7 63.45-23.9 62.85-24.75L62.85-24.75ZM80.24-24.7L84.79-25.2Q85.14-24.4 85.39-23.5 85.64-22.6 85.74-21.75L85.74-21.75Q87.09-23.05 89.04-24.25 90.99-25.45 92.99-25.45L92.99-25.45Q95.39-25.45 97.09-24.48 98.79-23.5 99.84-21.3L99.84-21.3Q101.34-22.8 103.39-24.13 105.44-25.45 107.59-25.45L107.59-25.45Q110.34-25.45 112.02-24.3 113.69-23.15 114.44-21.18 115.19-19.2 115.19-16.6L115.19-16.6 115.19 0 111.04 0 111.04-15.25Q111.04-16.75 110.82-18.25 110.59-19.75 109.72-20.75 108.84-21.75 106.89-21.75L106.89-21.75Q105.14-21.75 103.44-20.63 101.74-19.5 100.59-18.35L100.59-18.35 100.59 0 96.44 0 96.44-15.25Q96.44-16.8 96.22-18.28 95.99-19.75 95.12-20.75 94.24-21.75 92.29-21.75L92.29-21.75Q91.19-21.75 90.04-21.23 88.89-20.7 87.84-19.93 86.79-19.15 85.99-18.45L85.99-18.45 85.99 0 81.84 0 81.84-18.05Q81.84-19.1 81.67-20.3 81.49-21.5 81.14-22.65 80.79-23.8 80.24-24.7L80.24-24.7ZM131.94-25.45L131.94-25.45Q135.89-25.45 137.89-23.3 139.89-21.15 139.89-17.25L139.89-17.25 139.89-4.8Q139.89-3.75 140.29-3.38 140.69-3 141.24-3L141.24-3Q141.69-3 142.19-3.13 142.69-3.25 143.14-3.45L143.14-3.45 144.04-0.75Q143.24-0.3 142.02 0.08 140.79 0.45 139.49 0.45L139.49 0.45Q138.19 0.45 137.14-0.28 136.09-1 135.84-2.95L135.84-2.95Q134.39-1.4 132.44-0.43 130.49 0.55 128.34 0.55L128.34 0.55Q125.39 0.55 123.44-1.2 121.49-2.95 121.49-6L121.49-6Q121.49-8.85 122.87-10.55 124.24-12.25 126.44-13.1 128.64-13.95 131.12-14.25 133.59-14.55 135.74-14.55L135.74-14.55 135.74-17.2Q135.74-19.3 134.89-20.75 134.04-22.2 131.59-22.2L131.59-22.2Q129.69-22.2 127.94-21.45 126.19-20.7 124.44-19.25L124.44-19.25 122.39-22.2Q124.44-23.85 126.89-24.65 129.34-25.45 131.94-25.45ZM135.74-9.7L135.74-11.3Q134.39-11.3 132.69-11.18 130.99-11.05 129.39-10.58 127.79-10.1 126.77-9.05 125.74-8 125.74-6.15L125.74-6.15Q125.74-4.5 126.87-3.73 127.99-2.95 129.69-2.95L129.69-2.95Q131.49-2.95 132.84-3.95 134.19-4.95 134.97-6.5 135.74-8.05 135.74-9.7L135.74-9.7ZM146.34-24.65L150.89-25.25Q151.24-24.4 151.49-23.5 151.74-22.6 151.84-21.7L151.84-21.7Q153.34-23.2 155.39-24.33 157.44-25.45 159.59-25.45L159.59-25.45Q162.34-25.45 164.01-24.3 165.69-23.15 166.44-21.18 167.19-19.2 167.19-16.6L167.19-16.6 167.19 0 163.09 0 163.09-15.25Q163.09-16.8 162.86-18.3 162.64-19.8 161.76-20.78 160.89-21.75 158.89-21.75L158.89-21.75Q157.69-21.75 156.44-21.28 155.19-20.8 154.09-20.05 152.99-19.3 152.09-18.45L152.09-18.45 152.09 0 147.99 0 147.99-17.6Q147.99-18.6 147.84-19.93 147.69-21.25 147.34-22.53 146.99-23.8 146.34-24.65L146.34-24.65ZM196.38-36.4L200.93-36.4 213.53 0 208.38 0 204.18-12.5 192.18-12.5 187.93 0 183.73 0 196.38-36.4ZM203.03-15.9L198.23-30.3 193.33-15.9 203.03-15.9ZM221.18-31.95L224.23-31.95Q223.88-30.25 223.61-28.43 223.33-26.6 223.23-24.85L223.23-24.85 229.73-24.85 228.88-21.7 223.23-21.7 223.23-5.8Q223.23-4.85 223.46-4.13 223.68-3.4 224.26-3.03 224.83-2.65 225.88-2.65L225.88-2.65Q226.68-2.65 227.48-2.8 228.28-2.95 229.03-3.15L229.03-3.15 229.73-0.35Q228.48 0 227.36 0.28 226.23 0.55 224.78 0.55L224.78 0.55Q221.58 0.55 220.33-1.15 219.08-2.85 219.08-5.9L219.08-5.9 219.08-21.7 215.38-21.7 215.38-24.2Q217.38-24.25 218.53-25.53 219.68-26.8 220.28-28.6 220.88-30.4 221.18-31.95L221.18-31.95ZM234.18-38.1L238.93-38.1 238.93-21.9Q240.53-23.4 242.38-24.45 244.23-25.5 246.48-25.5L246.48-25.5Q249.23-25.5 250.88-24.35 252.53-23.2 253.28-21.23 254.03-19.25 254.03-16.65L254.03-16.65 254.03 0 249.93 0 249.93-15.3Q249.93-16.85 249.7-18.32 249.48-19.8 248.63-20.8 247.78-21.8 245.78-21.8L245.78-21.8Q244.53-21.8 243.3-21.3 242.08-20.8 240.98-20.05 239.88-19.3 238.93-18.5L238.93-18.5 238.93 0 234.83 0 234.83-35.15 234.18-38.1ZM271.33 0.65L271.33 0.65Q267.68 0.65 265.2-1.18 262.73-3 261.5-5.95 260.28-8.9 260.28-12.25L260.28-12.25Q260.28-15.6 261.6-18.63 262.93-21.65 265.48-23.55 268.03-25.45 271.63-25.45L271.63-25.45Q275.33-25.45 277.8-23.65 280.28-21.85 281.5-18.9 282.73-15.95 282.73-12.55L282.73-12.55Q282.73-9.15 281.43-6.13 280.13-3.1 277.58-1.23 275.03 0.65 271.33 0.65ZM271.38-2.5L271.38-2.5Q273.33-2.5 274.65-3.43 275.98-4.35 276.8-5.85 277.63-7.35 277.98-9.08 278.33-10.8 278.33-12.4L278.33-12.4Q278.33-14.05 278-15.78 277.68-17.5 276.93-18.98 276.18-20.45 274.85-21.38 273.53-22.3 271.58-22.3L271.58-22.3Q269.63-22.3 268.3-21.38 266.98-20.45 266.18-18.95 265.38-17.45 265.03-15.73 264.68-14 264.68-12.4L264.68-12.4Q264.68-10.85 265.03-9.13 265.38-7.4 266.15-5.9 266.93-4.4 268.23-3.45 269.53-2.5 271.38-2.5ZM287.02-24.75L291.52-25.3Q292.42-23.1 292.67-20.65L292.67-20.65Q293.97-22.7 296.17-24 298.37-25.3 300.82-25.3L300.82-25.3 299.82-20.9Q297.42-20.9 295.75-19.65 294.07-18.4 292.77-16.5L292.77-16.5 292.77 0 288.62 0 288.62-18Q288.62-19 288.47-20.25 288.32-21.5 287.97-22.7 287.62-23.9 287.02-24.75L287.02-24.75Z" opacity="1" transform="matrix(1,0,0,1,0,0)" fill="#e6b17e" class="wordmark-text-0" data-fill-palette-color="quaternary" id="text-0"></path></svg></g></svg></g><g transform="matrix(1,0,0,1,0,34.35347003426684)"><svg viewBox="0 0 213.1584412271571 17.175678907427137" height="17.175678907427137" width="213.1584412271571"><g transform="matrix(1,0,0,1,0,0)"><svg width="213.1584412271571" viewBox="3.700000047683716 -36.5 589.5 47.5" height="17.175678907427137" data-palette-color="#e6b17e"><path d="M7.3 0L3.7 0 3.7-26.45Q3.75-28.95 4.83-30.88 5.9-32.8 7.83-33.9 9.75-35 12.3-35L12.3-35 24.6-35 24.6-31.8 12.65-31.8Q10.2-31.8 8.75-30.28 7.3-28.75 7.3-26.45L7.3-26.45 7.3-18.6 22.75-18.6 22.75-15.4 7.3-15.4 7.3 0ZM39.49 0L35.99 0 35.99-18.25Q35.99-21.65 37.92-23.58 39.84-25.5 43.24-25.5L43.24-25.5 47.64-25.5 47.64-22.45 43.94-22.45Q41.74-22.45 40.62-21.25 39.49-20.05 39.49-17.85L39.49-17.85 39.49 0ZM69.93 0.65L69.93 0.65Q66.08 0.65 63.08-1.13 60.08-2.9 58.38-5.95 56.68-9 56.68-12.75L56.68-12.75Q56.68-16.5 58.38-19.55 60.08-22.6 63.08-24.38 66.08-26.15 69.93-26.15L69.93-26.15Q73.78-26.15 76.76-24.38 79.73-22.6 81.46-19.55 83.18-16.5 83.18-12.75L83.18-12.75Q83.18-9 81.46-5.95 79.73-2.9 76.76-1.13 73.78 0.65 69.93 0.65ZM69.93-2.4L69.93-2.4Q72.78-2.4 74.98-3.78 77.18-5.15 78.41-7.5 79.63-9.85 79.63-12.75L79.63-12.75Q79.63-15.65 78.41-18 77.18-20.35 74.98-21.73 72.78-23.1 69.93-23.1L69.93-23.1Q67.03-23.1 64.86-21.73 62.68-20.35 61.46-18 60.23-15.65 60.23-12.75L60.23-12.75Q60.23-9.85 61.46-7.5 62.68-5.15 64.86-3.78 67.03-2.4 69.93-2.4ZM98.92 0L95.42 0 95.42-14.85Q95.42-18.35 97-20.88 98.57-23.4 101.22-24.78 103.87-26.15 107.07-26.15L107.07-26.15Q110.32-26.15 112.95-24.78 115.57-23.4 117.15-20.88 118.72-18.35 118.72-14.85L118.72-14.85 118.72 0 115.22 0 115.22-14.7Q115.22-17.35 114.07-19.23 112.92-21.1 111.05-22.1 109.17-23.1 107.02-23.1L107.02-23.1Q104.92-23.1 103.07-22.13 101.22-21.15 100.07-19.28 98.92-17.4 98.92-14.7L98.92-14.7 98.92 0ZM146.57 0L140.97 0Q137.57 0 135.64-1.95 133.72-3.9 133.72-7.25L133.72-7.25 133.72-31.9 137.22-31.9 137.22-7.65Q137.22-5.45 138.34-4.25 139.47-3.05 141.67-3.05L141.67-3.05 146.57-3.05 146.57 0ZM146.67-22.45L129.27-22.45 129.27-25.5 146.67-25.5 146.67-22.45ZM170.56-11.6L156.41-11.6 156.41-14.8 170.56-14.8 170.56-11.6ZM201.5 0L195.25 0Q191.15 0 187.92-1.53 184.7-3.05 182.82-5.9 180.95-8.75 180.95-12.75L180.95-12.75Q180.95-16.45 182.45-19.48 183.95-22.5 186.67-24.3 189.4-26.1 193.05-26.1L193.05-26.1Q196.8-26.1 199.4-24.45 202-22.8 203.35-20 204.7-17.2 204.7-13.7L204.7-13.7Q204.7-13.2 204.65-12.6 204.6-12 204.5-11.55L204.5-11.55 184.65-11.55Q184.8-8.75 186.25-6.85 187.7-4.95 190.02-4 192.35-3.05 195.05-3.05L195.05-3.05 201.5-3.05 201.5 0ZM184.65-14.05L184.65-14.05 201.15-14.05Q201.15-15.05 200.95-16.28 200.75-17.5 200.22-18.7 199.7-19.9 198.77-20.9 197.85-21.9 196.42-22.53 195-23.15 192.95-23.15L192.95-23.15Q191.05-23.15 189.5-22.35 187.95-21.55 186.9-20.23 185.85-18.9 185.27-17.3 184.7-15.7 184.65-14.05ZM220.34 0L216.84 0 216.84-14.85Q216.84-18.35 218.42-20.88 219.99-23.4 222.64-24.78 225.29-26.15 228.49-26.15L228.49-26.15Q231.74-26.15 234.37-24.78 236.99-23.4 238.57-20.88 240.14-18.35 240.14-14.85L240.14-14.85 240.14 0 236.64 0 236.64-14.7Q236.64-17.35 235.49-19.23 234.34-21.1 232.47-22.1 230.59-23.1 228.44-23.1L228.44-23.1Q226.34-23.1 224.49-22.13 222.64-21.15 221.49-19.28 220.34-17.4 220.34-14.7L220.34-14.7 220.34 0ZM265.33 0.65L265.33 0.65Q268.83 0.65 271.78-0.9 274.73-2.45 276.48-5.45 278.23-8.45 278.23-12.7L278.23-12.7 278.23-36.5 274.73-36.5 274.73-20.25 274.63-20.25Q273.78-21.95 272.28-23.28 270.78-24.6 268.88-25.35 266.98-26.1 264.88-26.1L264.88-26.1Q261.43-26.1 258.61-24.5 255.78-22.9 254.08-19.98 252.38-17.05 252.38-12.95L252.38-12.95Q252.38-9.75 253.38-7.23 254.38-4.7 256.16-2.95 257.93-1.2 260.28-0.28 262.63 0.65 265.33 0.65ZM265.38-2.4L265.38-2.4Q262.83-2.4 260.68-3.63 258.53-4.85 257.23-7.18 255.93-9.5 255.93-12.75L255.93-12.75Q255.93-15.9 257.23-18.23 258.53-20.55 260.66-21.8 262.78-23.05 265.28-23.05L265.28-23.05Q267.78-23.05 269.93-21.83 272.08-20.6 273.38-18.3 274.68-16 274.68-12.7L274.68-12.7Q274.68-9.4 273.41-7.1 272.13-4.8 270.01-3.6 267.88-2.4 265.38-2.4ZM321.92 0L310.97 0 310.97-35 321.92-35Q327.42-35 331.52-32.75 335.62-30.5 337.87-26.58 340.12-22.65 340.12-17.55L340.12-17.55Q340.12-12.45 337.87-8.47 335.62-4.5 331.52-2.25 327.42 0 321.92 0L321.92 0ZM314.57-31.8L314.57-3.2 321.97-3.2Q326.12-3.2 329.42-4.93 332.72-6.65 334.59-9.88 336.47-13.1 336.47-17.55L336.47-17.55Q336.47-21.95 334.59-25.15 332.72-28.35 329.42-30.08 326.12-31.8 321.97-31.8L321.97-31.8 314.57-31.8ZM371.46 0L365.21 0Q361.11 0 357.88-1.53 354.66-3.05 352.78-5.9 350.91-8.75 350.91-12.75L350.91-12.75Q350.91-16.45 352.41-19.48 353.91-22.5 356.63-24.3 359.36-26.1 363.01-26.1L363.01-26.1Q366.76-26.1 369.36-24.45 371.96-22.8 373.31-20 374.66-17.2 374.66-13.7L374.66-13.7Q374.66-13.2 374.61-12.6 374.56-12 374.46-11.55L374.46-11.55 354.61-11.55Q354.76-8.75 356.21-6.85 357.66-4.95 359.98-4 362.31-3.05 365.01-3.05L365.01-3.05 371.46-3.05 371.46 0ZM354.61-14.05L354.61-14.05 371.11-14.05Q371.11-15.05 370.91-16.28 370.71-17.5 370.18-18.7 369.66-19.9 368.73-20.9 367.81-21.9 366.38-22.53 364.96-23.15 362.91-23.15L362.91-23.15Q361.01-23.15 359.46-22.35 357.91-21.55 356.86-20.23 355.81-18.9 355.23-17.3 354.66-15.7 354.61-14.05ZM396.9 0.6L396.9 0.6Q395.4 0.6 394.27-0.28 393.15-1.15 392.45-2.85L392.45-2.85 383.7-25.45 387.6-25.45 395.65-4.05Q395.95-3.4 396.25-3.1 396.55-2.8 396.95-2.8L396.95-2.8Q397.3-2.8 397.57-3.1 397.85-3.4 398.1-4.05L398.1-4.05 406.25-25.45 410.1-25.45 401.25-2.8Q400.6-1.1 399.47-0.25 398.35 0.6 396.9 0.6ZM439.29 0L433.04 0Q428.94 0 425.72-1.53 422.49-3.05 420.62-5.9 418.74-8.75 418.74-12.75L418.74-12.75Q418.74-16.45 420.24-19.48 421.74-22.5 424.47-24.3 427.19-26.1 430.84-26.1L430.84-26.1Q434.59-26.1 437.19-24.45 439.79-22.8 441.14-20 442.49-17.2 442.49-13.7L442.49-13.7Q442.49-13.2 442.44-12.6 442.39-12 442.29-11.55L442.29-11.55 422.44-11.55Q422.59-8.75 424.04-6.85 425.49-4.95 427.82-4 430.14-3.05 432.84-3.05L432.84-3.05 439.29-3.05 439.29 0ZM422.44-14.05L422.44-14.05 438.94-14.05Q438.94-15.05 438.74-16.28 438.54-17.5 438.02-18.7 437.49-19.9 436.57-20.9 435.64-21.9 434.22-22.53 432.79-23.15 430.74-23.15L430.74-23.15Q428.84-23.15 427.29-22.35 425.74-21.55 424.69-20.23 423.64-18.9 423.07-17.3 422.49-15.7 422.44-14.05ZM458.13 0L454.63 0 454.63-36.5 458.13-36.5 458.13 0ZM483.62 0.65L483.62 0.65Q479.77 0.65 476.77-1.13 473.77-2.9 472.07-5.95 470.37-9 470.37-12.75L470.37-12.75Q470.37-16.5 472.07-19.55 473.77-22.6 476.77-24.38 479.77-26.15 483.62-26.15L483.62-26.15Q487.47-26.15 490.45-24.38 493.42-22.6 495.15-19.55 496.87-16.5 496.87-12.75L496.87-12.75Q496.87-9 495.15-5.95 493.42-2.9 490.45-1.13 487.47 0.65 483.62 0.65ZM483.62-2.4L483.62-2.4Q486.47-2.4 488.67-3.78 490.87-5.15 492.1-7.5 493.32-9.85 493.32-12.75L493.32-12.75Q493.32-15.65 492.1-18 490.87-20.35 488.67-21.73 486.47-23.1 483.62-23.1L483.62-23.1Q480.72-23.1 478.55-21.73 476.37-20.35 475.15-18 473.92-15.65 473.92-12.75L473.92-12.75Q473.92-9.85 475.15-7.5 476.37-5.15 478.55-3.78 480.72-2.4 483.62-2.4ZM521.91-26.15L521.91-26.15Q518.41-26.15 515.46-24.6 512.51-23.05 510.76-20.05 509.01-17.05 509.01-12.8L509.01-12.8 509.01 11 512.51 11 512.51-5.25 512.61-5.25Q513.46-3.55 514.96-2.23 516.46-0.9 518.36-0.15 520.26 0.6 522.36 0.6L522.36 0.6Q525.81 0.6 528.64-1 531.46-2.6 533.16-5.53 534.86-8.45 534.86-12.55L534.86-12.55Q534.86-15.75 533.86-18.28 532.86-20.8 531.09-22.55 529.31-24.3 526.96-25.23 524.61-26.15 521.91-26.15ZM521.86-23.1L521.86-23.1Q524.41-23.1 526.56-21.88 528.71-20.65 530.01-18.32 531.31-16 531.31-12.75L531.31-12.75Q531.31-9.6 530.01-7.28 528.71-4.95 526.59-3.7 524.46-2.45 521.96-2.45L521.96-2.45Q519.46-2.45 517.31-3.68 515.16-4.9 513.86-7.2 512.56-9.5 512.56-12.8L512.56-12.8Q512.56-16.1 513.84-18.4 515.11-20.7 517.24-21.9 519.36-23.1 521.86-23.1ZM566.31 0L560.06 0Q555.96 0 552.73-1.53 549.51-3.05 547.63-5.9 545.76-8.75 545.76-12.75L545.76-12.75Q545.76-16.45 547.26-19.48 548.76-22.5 551.48-24.3 554.21-26.1 557.86-26.1L557.86-26.1Q561.61-26.1 564.21-24.45 566.81-22.8 568.16-20 569.51-17.2 569.51-13.7L569.51-13.7Q569.51-13.2 569.46-12.6 569.41-12 569.31-11.55L569.31-11.55 549.46-11.55Q549.61-8.75 551.06-6.85 552.51-4.95 554.83-4 557.16-3.05 559.86-3.05L559.86-3.05 566.31-3.05 566.31 0ZM549.46-14.05L549.46-14.05 565.96-14.05Q565.96-15.05 565.76-16.28 565.56-17.5 565.03-18.7 564.51-19.9 563.58-20.9 562.66-21.9 561.23-22.53 559.81-23.15 557.76-23.15L557.76-23.15Q555.86-23.15 554.31-22.35 552.76-21.55 551.71-20.23 550.66-18.9 550.08-17.3 549.51-15.7 549.46-14.05ZM585.05 0L581.55 0 581.55-18.25Q581.55-21.65 583.47-23.58 585.4-25.5 588.8-25.5L588.8-25.5 593.2-25.5 593.2-22.45 589.5-22.45Q587.3-22.45 586.17-21.25 585.05-20.05 585.05-17.85L585.05-17.85 585.05 0Z" opacity="1" transform="matrix(1,0,0,1,0,0)" fill="#e6b17e" class="slogan-text-1" data-fill-palette-color="quaternary" id="text-1"></path></svg></g></svg></g></svg></g></svg></g><g transform="matrix(1,0,0,1,60.240558978095706,0)"><svg viewBox="0 0 92.6773232709657 71.21328383742107" height="71.21328383742107" width="92.6773232709657"><g><svg xmlns="http://www.w3.org/2000/svg" xmlns:xlink="http://www.w3.org/1999/xlink" version="1.1" x="0" y="0" viewBox="28.695999145507812 33.630001068115234 42.608001708984375 32.7400016784668" enable-background="new 0 0 100 100" xml:space="preserve" height="71.21328383742107" width="92.6773232709657" class="icon-icon-0" data-fill-palette-color="quaternary" id="icon-0"><g fill="#e6b17e" data-fill-palette-color="quaternary"><polygon points="51.328,62.764 54.934,66.37 71.304,50 54.934,33.63 51.328,37.236 64.091,50  " fill="#e6b17e" data-fill-palette-color="quaternary"></polygon><polygon points="40.087,63.365 42.491,65.769 58.26,50 42.491,34.231 40.087,36.635 53.452,50  " fill="#e6b17e" data-fill-palette-color="quaternary"></polygon><polygon points="28.696,63.816 30.198,65.318 45.517,50 30.198,34.682 28.696,36.184 42.512,50  " fill="#e6b17e" data-fill-palette-color="quaternary"></polygon></g></svg></g></svg></g><g></g></svg></g></svg></g></svg></g></svg></g><defs></defs></svg><rect width="342.85155851775386" height="342.85155851775386" fill="none" stroke="none" visibility="hidden"></rect></g></svg></g></svg>